<svg width="21" height="21" viewBox="0 0 21 21" fill="none" xmlns="http://www.w3.org/2000/svg">
<circle cx="10.5" cy="10.5" r="10.5" fill="#EA4359"/>
<path d="M11.5 6.5C11.5 5.94772 11.0523 5.5 10.5 5.5C9.94772 5.5 9.5 5.94772 9.5 6.5V9.5H6.5C5.94772 9.5 5.5 9.94772 5.5 10.5C5.5 11.0523 5.94772 11.5 6.5 11.5H9.5V14.5C9.5 15.0523 9.94772 15.5 10.5 15.5C11.0523 15.5 11.5 15.0523 11.5 14.5V11.5H14.5C15.0523 11.5 15.5 11.0523 15.5 10.5C15.5 9.94771 15.0523 9.5 14.5 9.5H11.5V6.5Z" fill="white"/>
</svg>
