<svg width="35" height="27" viewBox="0 0 35 27" fill="none" xmlns="http://www.w3.org/2000/svg">
<path d="M33.7488 14.5845C34.1785 14.1965 34.1899 13.5257 33.7736 13.1233L20.4882 0.282948C19.8535 -0.330505 18.7932 0.119278 18.7932 1.00199V6.3621C13.8272 6.28534 10.0963 7.58418 7.32374 9.57464C4.50779 11.5962 2.7136 14.307 1.608 16.9345C0.503415 19.5595 0.077736 22.1203 0.00995046 23.8761C-0.023478 24.742 0.0281576 25.4566 0.152234 25.8933C0.183943 26.0048 0.226784 26.122 0.288368 26.2255C0.342582 26.3167 0.457269 26.4754 0.665654 26.5417C0.916394 26.6214 1.12921 26.5191 1.25256 26.4132C1.36389 26.3176 1.4387 26.1943 1.49047 26.0908L1.49705 26.0777L1.50234 26.0653L1.50284 26.0641L1.50411 26.0613L1.51432 26.0391C1.52418 26.018 1.54023 25.9845 1.56294 25.94C1.60837 25.8509 1.68042 25.7173 1.78287 25.549C1.98783 25.2123 2.31409 24.737 2.79199 24.1994C3.74659 23.1255 5.30921 21.7993 7.72901 20.8314C9.1064 20.2805 11.4023 20.0297 13.6533 19.9891C15.8014 19.9504 17.8049 20.1041 18.7932 20.322V25.8392C18.7932 26.7058 19.8203 27.1622 20.4634 26.5814L33.7488 14.5845Z" fill="#FBFBFB"/>
</svg>
